<svg id="Layer_1" height="512" viewBox="0 0 128 128" width="512" xmlns="http://www.w3.org/2000/svg" xmlns:xlink="http://www.w3.org/1999/xlink" data-name="Layer 1"><linearGradient id="linear-gradient" gradientUnits="userSpaceOnUse" x1="117.887" x2="3.191" y1="127.584" y2="12.887"><stop offset="0" stop-color="#30ade0"/><stop offset="1" stop-color="#85c646"/></linearGradient><path d="m22.5 112.808h13.445a1.751 1.751 0 0 0 1.75-1.75v-28.3a1.75 1.75 0 0 0 -1.75-1.75h-13.445a1.75 1.75 0 0 0 -1.75 1.75v28.3a1.751 1.751 0 0 0 1.75 1.75zm1.75-28.3h9.95v24.8h-9.954zm19.634-16.331a1.749 1.749 0 0 0 -1.75 1.75v41.131a1.75 1.75 0 0 0 1.75 1.75h13.449a1.751 1.751 0 0 0 1.75-1.75v-41.131a1.75 1.75 0 0 0 -1.75-1.75zm11.7 41.131h-9.95v-37.631h9.949zm21.387-39.381v-11.078h-9.95v50.459h9.95v-27.975a1.75 1.75 0 0 1 3.5 0v29.725a1.751 1.751 0 0 1 -1.75 1.75h-13.45a1.751 1.751 0 0 1 -1.75-1.75v-53.958a1.75 1.75 0 0 1 1.75-1.75h13.45a1.75 1.75 0 0 1 1.75 1.75v12.827a1.75 1.75 0 1 1 -3.5 0zm7.938-25.656v66.787a1.75 1.75 0 0 0 1.75 1.75h13.449a1.75 1.75 0 0 0 1.75-1.75v-66.787a1.749 1.749 0 0 0 -1.75-1.75h-13.449a1.749 1.749 0 0 0 -1.75 1.75zm3.5 1.75h9.949v63.287h-9.949zm34.837-14.579v79.616a1.75 1.75 0 0 1 -1.75 1.75h-13.448a1.75 1.75 0 0 1 -1.75-1.75v-21.225a1.75 1.75 0 0 1 3.5 0v19.475h9.948v-76.116h-9.946v30.808a1.75 1.75 0 0 1 -3.5 0v-32.558a1.75 1.75 0 0 1 1.75-1.75h13.45a1.75 1.75 0 0 1 1.746 1.75zm-16.946 49.891v-8.333a1.75 1.75 0 0 1 3.5 0v8.333a1.75 1.75 0 0 1 -3.5 0zm16.946 40.167a1.749 1.749 0 0 1 -1.75 1.75h-109.442a1.749 1.749 0 0 1 -1.75-1.75v-24.166h-3.804a1.75 1.75 0 0 1 0-3.5h3.8v-9.328h-3.8a1.75 1.75 0 0 1 0-3.5h3.8v-9.329h-3.8a1.75 1.75 0 0 1 0-3.5h3.8v-9.328h-3.8a1.75 1.75 0 0 1 0-3.5h3.8v-9.328h-3.8a1.75 1.75 0 0 1 0-3.5h3.8v-9.329h-3.8a1.75 1.75 0 0 1 0-3.5h3.8v-23.192a1.75 1.75 0 0 1 3.5 0v113.25h107.7a1.749 1.749 0 0 1 1.746 1.75zm-91.668-61.384a1.75 1.75 0 0 1 .6-2.4l58.222-34.916-4.53-1.138a1.749 1.749 0 0 1 .85-3.394l8.62 2.156a1.822 1.822 0 0 1 .332.119c.038.018.07.043.106.063a1.773 1.773 0 0 1 .186.113 1.445 1.445 0 0 1 .124.111c.043.039.089.074.129.118a1.8 1.8 0 0 1 .162.217c.013.021.03.037.043.058s.016.038.027.057a1.823 1.823 0 0 1 .119.253 1.689 1.689 0 0 1 .043.166 1.543 1.543 0 0 1 .04.166 1.7 1.7 0 0 1 .011.2 1.282 1.282 0 0 1 .006.139 1.671 1.671 0 0 1 -.051.345l-2.157 8.626a1.75 1.75 0 0 1 -3.395-.85l1.135-4.525-58.221 34.917a1.751 1.751 0 0 1 -2.4-.6z" fill="url(#linear-gradient)"/></svg>